<svg width="127" height="29" viewBox="0 0 127 29" fill="none" xmlns="http://www.w3.org/2000/svg">
<path d="M22.7812 11.8125C22.7812 16.9383 16.875 24.4688 13.5 24.4688C10.125 24.4688 4.21875 16.9383 4.21875 11.8125C4.21875 9.35096 5.19659 6.99024 6.93717 5.24967C8.67774 3.50909 11.0385 2.53125 13.5 2.53125C15.9615 2.53125 18.3223 3.50909 20.0628 5.24967C21.8034 6.99024 22.7812 9.35096 22.7812 11.8125V11.8125Z" stroke="#FFA400" stroke-linecap="round" stroke-linejoin="round"/>
<path d="M10.9687 15.6094C10.0736 15.6094 9.2152 15.2538 8.58226 14.6209C7.94933 13.9879 7.59375 13.1295 7.59375 12.2344L7.59375 11.8125C7.59375 11.5887 7.68265 11.3741 7.84088 11.2159C7.99911 11.0576 8.21372 10.9687 8.4375 10.9687C9.33261 10.9687 10.1911 11.3243 10.824 11.9573C11.4569 12.5902 11.8125 13.4486 11.8125 14.3437V14.7656C11.8125 14.9894 11.7236 15.204 11.5654 15.3622C11.4071 15.5205 11.1925 15.6094 10.9687 15.6094Z" stroke="#009FFD" stroke-linecap="round" stroke-linejoin="round"/>
<path d="M18.5625 10.9688C18.7863 10.9688 19.0009 11.0576 19.1591 11.2159C19.3174 11.3741 19.4062 11.5887 19.4062 11.8125V12.2344C19.4062 13.1295 19.0507 13.9879 18.4177 14.6209C17.7848 15.2538 16.9264 15.6094 16.0312 15.6094C15.8075 15.6094 15.5929 15.5205 15.4346 15.3622C15.2764 15.204 15.1875 14.9894 15.1875 14.7656V14.3437C15.1875 13.4486 15.5431 12.5902 16.176 11.9573C16.809 11.3243 17.6674 10.9688 18.5625 10.9688Z" stroke="#009FFD" stroke-linecap="round" stroke-linejoin="round"/>
<path d="M11.8125 19.4062H15.1875" stroke="#FFA400" stroke-linecap="round" stroke-linejoin="round"/>
<path d="M34.2969 7.44922L28.6484 23H26.3398L32.8438 5.9375H34.332L34.2969 7.44922ZM39.0312 23L33.3711 7.44922L33.3359 5.9375H34.8242L41.3516 23H39.0312ZM38.7383 16.6836V18.5352H29.1523V16.6836H38.7383ZM45.6641 5V23H43.4844V5H45.6641ZM51.5 10.3203V23H49.3203V10.3203H51.5ZM49.1562 6.95703C49.1562 6.60547 49.2617 6.30859 49.4727 6.06641C49.6914 5.82422 50.0117 5.70312 50.4336 5.70312C50.8477 5.70312 51.1641 5.82422 51.3828 6.06641C51.6094 6.30859 51.7227 6.60547 51.7227 6.95703C51.7227 7.29297 51.6094 7.58203 51.3828 7.82422C51.1641 8.05859 50.8477 8.17578 50.4336 8.17578C50.0117 8.17578 49.6914 8.05859 49.4727 7.82422C49.2617 7.58203 49.1562 7.29297 49.1562 6.95703ZM60.2422 23.2344C59.3594 23.2344 58.5586 23.0859 57.8398 22.7891C57.1289 22.4844 56.5156 22.0586 56 21.5117C55.4922 20.9648 55.1016 20.3164 54.8281 19.5664C54.5547 18.8164 54.418 17.9961 54.418 17.1055V16.6133C54.418 15.582 54.5703 14.6641 54.875 13.8594C55.1797 13.0469 55.5938 12.3594 56.1172 11.7969C56.6406 11.2344 57.2344 10.8086 57.8984 10.5195C58.5625 10.2305 59.25 10.0859 59.9609 10.0859C60.8672 10.0859 61.6484 10.2422 62.3047 10.5547C62.9688 10.8672 63.5117 11.3047 63.9336 11.8672C64.3555 12.4219 64.668 13.0781 64.8711 13.8359C65.0742 14.5859 65.1758 15.4062 65.1758 16.2969V17.2695H55.707V15.5H63.0078V15.3359C62.9766 14.7734 62.8594 14.2266 62.6562 13.6953C62.4609 13.1641 62.1484 12.7266 61.7188 12.3828C61.2891 12.0391 60.7031 11.8672 59.9609 11.8672C59.4688 11.8672 59.0156 11.9727 58.6016 12.1836C58.1875 12.3867 57.832 12.6914 57.5352 13.0977C57.2383 13.5039 57.0078 14 56.8438 14.5859C56.6797 15.1719 56.5977 15.8477 56.5977 16.6133V17.1055C56.5977 17.707 56.6797 18.2734 56.8438 18.8047C57.0156 19.3281 57.2617 19.7891 57.582 20.1875C57.9102 20.5859 58.3047 20.8984 58.7656 21.125C59.2344 21.3516 59.7656 21.4648 60.3594 21.4648C61.125 21.4648 61.7734 21.3086 62.3047 20.9961C62.8359 20.6836 63.3008 20.2656 63.6992 19.7422L65.0117 20.7852C64.7383 21.1992 64.3906 21.5938 63.9688 21.9688C63.5469 22.3438 63.0273 22.6484 62.4102 22.8828C61.8008 23.1172 61.0781 23.2344 60.2422 23.2344ZM69.875 13.0273V23H67.707V10.3203H69.7578L69.875 13.0273ZM69.3594 16.1797L68.457 16.1445C68.4648 15.2773 68.5938 14.4766 68.8438 13.7422C69.0938 13 69.4453 12.3555 69.8984 11.8086C70.3516 11.2617 70.8906 10.8398 71.5156 10.543C72.1484 10.2383 72.8477 10.0859 73.6133 10.0859C74.2383 10.0859 74.8008 10.1719 75.3008 10.3438C75.8008 10.5078 76.2266 10.7734 76.5781 11.1406C76.9375 11.5078 77.2109 11.9844 77.3984 12.5703C77.5859 13.1484 77.6797 13.8555 77.6797 14.6914V23H75.5V14.668C75.5 14.0039 75.4023 13.4727 75.207 13.0742C75.0117 12.668 74.7266 12.375 74.3516 12.1953C73.9766 12.0078 73.5156 11.9141 72.9688 11.9141C72.4297 11.9141 71.9375 12.0273 71.4922 12.2539C71.0547 12.4805 70.6758 12.793 70.3555 13.1914C70.043 13.5898 69.7969 14.0469 69.6172 14.5625C69.4453 15.0703 69.3594 15.6094 69.3594 16.1797Z" fill="#009FFD"/>
<path d="M90.0312 14.084V15.7705H81.5664V14.084H90.0312ZM81.8887 7.35938V23H79.8154V7.35938H81.8887ZM91.8359 7.35938V23H89.7734V7.35938H91.8359ZM100.043 23.2148C99.2337 23.2148 98.4997 23.0788 97.8408 22.8066C97.1891 22.5273 96.627 22.137 96.1543 21.6357C95.6888 21.1344 95.3307 20.54 95.0801 19.8525C94.8294 19.165 94.7041 18.4131 94.7041 17.5967V17.1455C94.7041 16.2002 94.8438 15.3587 95.123 14.6211C95.4023 13.8763 95.7819 13.2461 96.2617 12.7305C96.7415 12.2148 97.2858 11.8245 97.8945 11.5596C98.5033 11.2946 99.1335 11.1621 99.7852 11.1621C100.616 11.1621 101.332 11.3053 101.934 11.5918C102.542 11.8783 103.04 12.2793 103.427 12.7949C103.813 13.3034 104.1 13.9049 104.286 14.5996C104.472 15.2871 104.565 16.0391 104.565 16.8555V17.7471H95.8857V16.125H102.578V15.9746C102.549 15.459 102.442 14.9577 102.256 14.4707C102.077 13.9837 101.79 13.5827 101.396 13.2676C101.003 12.9525 100.465 12.7949 99.7852 12.7949C99.334 12.7949 98.9186 12.8916 98.5391 13.085C98.1595 13.2712 97.8337 13.5505 97.5615 13.9229C97.2894 14.2952 97.0781 14.75 96.9277 15.2871C96.7773 15.8242 96.7021 16.4437 96.7021 17.1455V17.5967C96.7021 18.1481 96.7773 18.6673 96.9277 19.1543C97.0853 19.6341 97.3109 20.0566 97.6045 20.4219C97.9053 20.7871 98.2669 21.0736 98.6895 21.2812C99.1191 21.4889 99.6061 21.5928 100.15 21.5928C100.852 21.5928 101.447 21.4495 101.934 21.1631C102.421 20.8766 102.847 20.4935 103.212 20.0137L104.415 20.9697C104.164 21.3493 103.846 21.7109 103.459 22.0547C103.072 22.3984 102.596 22.6777 102.03 22.8926C101.472 23.1074 100.809 23.2148 100.043 23.2148ZM109.045 6.5V23H107.047V6.5H109.045ZM114.223 13.6113V27.4688H112.225V11.377H114.051L114.223 13.6113ZM122.054 17.0918V17.3174C122.054 18.1624 121.953 18.9466 121.753 19.6699C121.552 20.3861 121.259 21.0091 120.872 21.5391C120.493 22.069 120.023 22.4808 119.465 22.7744C118.906 23.068 118.265 23.2148 117.542 23.2148C116.804 23.2148 116.153 23.0931 115.587 22.8496C115.021 22.6061 114.541 22.2516 114.147 21.7861C113.754 21.3206 113.438 20.762 113.202 20.1104C112.973 19.4587 112.815 18.7246 112.729 17.9082V16.7051C112.815 15.8457 112.977 15.0758 113.213 14.3955C113.449 13.7152 113.761 13.1351 114.147 12.6553C114.541 12.1683 115.018 11.7995 115.576 11.5488C116.135 11.291 116.779 11.1621 117.51 11.1621C118.24 11.1621 118.888 11.3053 119.454 11.5918C120.02 11.8711 120.496 12.2721 120.883 12.7949C121.27 13.3177 121.56 13.9443 121.753 14.6748C121.953 15.3981 122.054 16.2038 122.054 17.0918ZM120.056 17.3174V17.0918C120.056 16.5117 119.995 15.9674 119.873 15.459C119.751 14.9434 119.562 14.4922 119.304 14.1055C119.053 13.7116 118.731 13.4036 118.337 13.1816C117.943 12.9525 117.474 12.8379 116.93 12.8379C116.428 12.8379 115.992 12.9238 115.619 13.0957C115.254 13.2676 114.942 13.5003 114.685 13.7939C114.427 14.0804 114.215 14.4098 114.051 14.7822C113.893 15.1475 113.775 15.527 113.696 15.9209V18.7031C113.84 19.2044 114.04 19.6771 114.298 20.1211C114.556 20.5579 114.899 20.9124 115.329 21.1846C115.759 21.4495 116.299 21.582 116.951 21.582C117.488 21.582 117.95 21.471 118.337 21.249C118.731 21.0199 119.053 20.7083 119.304 20.3145C119.562 19.9206 119.751 19.4694 119.873 18.9609C119.995 18.4453 120.056 17.8975 120.056 17.3174Z" fill="#FFA400"/>
</svg>
