<svg width="130" height="81" viewBox="0 0 130 81" fill="none" xmlns="http://www.w3.org/2000/svg">
<path d="M80.4375 18.375C80.4375 26.3484 71.25 38.0625 66 38.0625C60.75 38.0625 51.5625 26.3484 51.5625 18.375C51.5625 14.5459 53.0836 10.8737 55.7911 8.16615C58.4987 5.45859 62.1709 3.9375 66 3.9375C69.8291 3.9375 73.5013 5.45859 76.2089 8.16615C78.9164 10.8737 80.4375 14.5459 80.4375 18.375V18.375Z" stroke="#FFA400" stroke-width="2" stroke-linecap="round" stroke-linejoin="round"/>
<path d="M62.0625 24.2812C60.6701 24.2812 59.3348 23.7281 58.3502 22.7436C57.3656 21.759 56.8125 20.4236 56.8125 19.0312V18.375C56.8125 18.0269 56.9508 17.6931 57.1969 17.4469C57.4431 17.2008 57.7769 17.0625 58.125 17.0625C59.5174 17.0625 60.8527 17.6156 61.8373 18.6002C62.8219 19.5848 63.375 20.9201 63.375 22.3125V22.9688C63.375 23.3168 63.2367 23.6507 62.9906 23.8968C62.7444 24.143 62.4106 24.2812 62.0625 24.2812Z" stroke="#009FFD" stroke-width="2" stroke-linecap="round" stroke-linejoin="round"/>
<path d="M73.875 17.0625C74.2231 17.0625 74.5569 17.2008 74.8031 17.4469C75.0492 17.6931 75.1875 18.0269 75.1875 18.375V19.0312C75.1875 20.4236 74.6344 21.759 73.6498 22.7436C72.6652 23.7281 71.3299 24.2812 69.9375 24.2812C69.5894 24.2812 69.2556 24.143 69.0094 23.8968C68.7633 23.6507 68.625 23.3168 68.625 22.9688V22.3125C68.625 20.9201 69.1781 19.5848 70.1627 18.6002C71.1473 17.6156 72.4826 17.0625 73.875 17.0625Z" stroke="#009FFD" stroke-width="2" stroke-linecap="round" stroke-linejoin="round"/>
<path d="M63.375 30.1875H68.625" stroke="#FFA400" stroke-width="2" stroke-linecap="round" stroke-linejoin="round"/>
<path d="M10.3711 54.5615L3.31055 74H0.424805L8.55469 52.6719H10.415L10.3711 54.5615ZM16.2891 74L9.21387 54.5615L9.16992 52.6719H11.0303L19.1895 74H16.2891ZM15.9229 66.1045V68.4189H3.94043V66.1045H15.9229ZM24.5801 51.5V74H21.8555V51.5H24.5801ZM31.875 58.1504V74H29.1504V58.1504H31.875ZM28.9453 53.9463C28.9453 53.5068 29.0771 53.1357 29.3408 52.833C29.6143 52.5303 30.0146 52.3789 30.542 52.3789C31.0596 52.3789 31.4551 52.5303 31.7285 52.833C32.0117 53.1357 32.1533 53.5068 32.1533 53.9463C32.1533 54.3662 32.0117 54.7275 31.7285 55.0303C31.4551 55.3232 31.0596 55.4697 30.542 55.4697C30.0146 55.4697 29.6143 55.3232 29.3408 55.0303C29.0771 54.7275 28.9453 54.3662 28.9453 53.9463ZM42.8027 74.293C41.6992 74.293 40.6982 74.1074 39.7998 73.7363C38.9111 73.3555 38.1445 72.8232 37.5 72.1396C36.8652 71.4561 36.377 70.6455 36.0352 69.708C35.6934 68.7705 35.5225 67.7451 35.5225 66.6318V66.0166C35.5225 64.7275 35.7129 63.5801 36.0938 62.5742C36.4746 61.5586 36.9922 60.6992 37.6465 59.9961C38.3008 59.293 39.043 58.7607 39.873 58.3994C40.7031 58.0381 41.5625 57.8574 42.4512 57.8574C43.584 57.8574 44.5605 58.0527 45.3809 58.4434C46.2109 58.834 46.8896 59.3809 47.417 60.084C47.9443 60.7773 48.335 61.5977 48.5889 62.5449C48.8428 63.4824 48.9697 64.5078 48.9697 65.6211V66.8369H37.1338V64.625H46.2598V64.4199C46.2207 63.7168 46.0742 63.0332 45.8203 62.3691C45.5762 61.7051 45.1855 61.1582 44.6484 60.7285C44.1113 60.2988 43.3789 60.084 42.4512 60.084C41.8359 60.084 41.2695 60.2158 40.752 60.4795C40.2344 60.7334 39.79 61.1143 39.4189 61.6221C39.0479 62.1299 38.7598 62.75 38.5547 63.4824C38.3496 64.2148 38.2471 65.0596 38.2471 66.0166V66.6318C38.2471 67.3838 38.3496 68.0918 38.5547 68.7559C38.7695 69.4102 39.0771 69.9863 39.4775 70.4844C39.8877 70.9824 40.3809 71.373 40.957 71.6562C41.543 71.9395 42.207 72.0811 42.9492 72.0811C43.9062 72.0811 44.7168 71.8857 45.3809 71.4951C46.0449 71.1045 46.626 70.582 47.124 69.9277L48.7646 71.2314C48.4229 71.749 47.9883 72.2422 47.4609 72.7109C46.9336 73.1797 46.2842 73.5605 45.5127 73.8535C44.751 74.1465 43.8477 74.293 42.8027 74.293ZM54.8438 61.5342V74H52.1338V58.1504H54.6973L54.8438 61.5342ZM54.1992 65.4746L53.0713 65.4307C53.0811 64.3467 53.2422 63.3457 53.5547 62.4277C53.8672 61.5 54.3066 60.6943 54.873 60.0107C55.4395 59.3271 56.1133 58.7998 56.8945 58.4287C57.6855 58.0479 58.5596 57.8574 59.5166 57.8574C60.2979 57.8574 61.001 57.9648 61.626 58.1797C62.251 58.3848 62.7832 58.7168 63.2227 59.1758C63.6719 59.6348 64.0137 60.2305 64.248 60.9629C64.4824 61.6855 64.5996 62.5693 64.5996 63.6143V74H61.875V63.585C61.875 62.7549 61.7529 62.0908 61.5088 61.5928C61.2646 61.085 60.9082 60.7188 60.4395 60.4941C59.9707 60.2598 59.3945 60.1426 58.7109 60.1426C58.0371 60.1426 57.4219 60.2842 56.8652 60.5674C56.3184 60.8506 55.8447 61.2412 55.4443 61.7393C55.0537 62.2373 54.7461 62.8086 54.5215 63.4531C54.3066 64.0879 54.1992 64.7617 54.1992 65.4746Z" fill="#009FFD"/>
<path d="M82.4062 61.8418V64.1416H70.8633V61.8418H82.4062ZM71.3027 52.6719V74H68.4756V52.6719H71.3027ZM84.8672 52.6719V74H82.0547V52.6719H84.8672ZM96.0586 74.293C94.9551 74.293 93.9541 74.1074 93.0557 73.7363C92.167 73.3555 91.4004 72.8232 90.7559 72.1396C90.1211 71.4561 89.6328 70.6455 89.291 69.708C88.9492 68.7705 88.7783 67.7451 88.7783 66.6318V66.0166C88.7783 64.7275 88.9688 63.5801 89.3496 62.5742C89.7305 61.5586 90.248 60.6992 90.9023 59.9961C91.5566 59.293 92.2988 58.7607 93.1289 58.3994C93.959 58.0381 94.8184 57.8574 95.707 57.8574C96.8398 57.8574 97.8164 58.0527 98.6367 58.4434C99.4668 58.834 100.146 59.3809 100.673 60.084C101.2 60.7773 101.591 61.5977 101.845 62.5449C102.099 63.4824 102.226 64.5078 102.226 65.6211V66.8369H90.3896V64.625H99.5156V64.4199C99.4766 63.7168 99.3301 63.0332 99.0762 62.3691C98.832 61.7051 98.4414 61.1582 97.9043 60.7285C97.3672 60.2988 96.6348 60.084 95.707 60.084C95.0918 60.084 94.5254 60.2158 94.0078 60.4795C93.4902 60.7334 93.0459 61.1143 92.6748 61.6221C92.3037 62.1299 92.0156 62.75 91.8105 63.4824C91.6055 64.2148 91.5029 65.0596 91.5029 66.0166V66.6318C91.5029 67.3838 91.6055 68.0918 91.8105 68.7559C92.0254 69.4102 92.333 69.9863 92.7334 70.4844C93.1436 70.9824 93.6367 71.373 94.2129 71.6562C94.7988 71.9395 95.4629 72.0811 96.2051 72.0811C97.1621 72.0811 97.9727 71.8857 98.6367 71.4951C99.3008 71.1045 99.8818 70.582 100.38 69.9277L102.021 71.2314C101.679 71.749 101.244 72.2422 100.717 72.7109C100.189 73.1797 99.54 73.5605 98.7686 73.8535C98.0068 74.1465 97.1035 74.293 96.0586 74.293ZM108.334 51.5V74H105.609V51.5H108.334ZM115.395 61.1973V80.0938H112.67V58.1504H115.16L115.395 61.1973ZM126.073 65.9434V66.251C126.073 67.4033 125.937 68.4727 125.663 69.459C125.39 70.4355 124.989 71.2852 124.462 72.0078C123.944 72.7305 123.305 73.292 122.543 73.6924C121.781 74.0928 120.907 74.293 119.921 74.293C118.915 74.293 118.026 74.127 117.255 73.7949C116.483 73.4629 115.829 72.9795 115.292 72.3447C114.755 71.71 114.325 70.9482 114.003 70.0596C113.69 69.1709 113.476 68.1699 113.358 67.0566V65.416C113.476 64.2441 113.695 63.1943 114.018 62.2666C114.34 61.3389 114.765 60.5479 115.292 59.8936C115.829 59.2295 116.479 58.7266 117.24 58.3848C118.002 58.0332 118.881 57.8574 119.877 57.8574C120.873 57.8574 121.757 58.0527 122.528 58.4434C123.3 58.8242 123.949 59.3711 124.477 60.084C125.004 60.7969 125.399 61.6514 125.663 62.6475C125.937 63.6338 126.073 64.7324 126.073 65.9434ZM123.349 66.251V65.9434C123.349 65.1523 123.266 64.4102 123.1 63.7168C122.934 63.0137 122.675 62.3984 122.323 61.8711C121.981 61.334 121.542 60.9141 121.005 60.6113C120.468 60.2988 119.828 60.1426 119.086 60.1426C118.402 60.1426 117.807 60.2598 117.299 60.4941C116.801 60.7285 116.376 61.0459 116.024 61.4463C115.673 61.8369 115.385 62.2861 115.16 62.7939C114.945 63.292 114.784 63.8096 114.677 64.3467V68.1406C114.872 68.8242 115.146 69.4688 115.497 70.0742C115.849 70.6699 116.317 71.1533 116.903 71.5244C117.489 71.8857 118.227 72.0664 119.115 72.0664C119.848 72.0664 120.478 71.915 121.005 71.6123C121.542 71.2998 121.981 70.875 122.323 70.3379C122.675 69.8008 122.934 69.1855 123.1 68.4922C123.266 67.7891 123.349 67.042 123.349 66.251Z" fill="#FFA400"/>
</svg>
